<?xml version="1.0" encoding="UTF-8" standalone="no" ?>
<!DOCTYPE svg PUBLIC "-//W3C//DTD SVG 1.1//EN" "http://www.w3.org/Graphics/SVG/1.1/DTD/svg11.dtd">
<svg xmlns="http://www.w3.org/2000/svg" xmlns:xlink="http://www.w3.org/1999/xlink" version="1.1" width="1080" height="1080" viewBox="0 0 1080 1080" xml:space="preserve">
<desc>Created by Tim Fischer</desc>
<g transform="matrix(2.34 0 0 2.34 306.65 823.86)">
<circle style="fill: rgb(227,121,49); fill-rule: nonzero; opacity: 1;" vector-effect="non-scaling-stroke"  cx="0" cy="0" r="35" />
</g>
<g transform="matrix(4.48 0 0 4.48 628.68 893.67)">
<circle style="fill: rgb(93,156,212); fill-rule: nonzero; opacity: 1;" vector-effect="non-scaling-stroke"  cx="0" cy="0" r="35" />
</g>
<g transform="matrix(3.28 0 0 3.28 863.99 627.78)">
<circle style="fill: rgb(27,78,125); fill-rule: nonzero; opacity: 1;" vector-effect="non-scaling-stroke"  cx="0" cy="0" r="35" />
</g>
<g transform="matrix(5.18 0 0 5.18 436.62 515.66)">
<circle style="fill: rgb(136,198,88); fill-rule: nonzero; opacity: 1;" vector-effect="non-scaling-stroke"  cx="0" cy="0" r="35" />
</g>
<g transform="matrix(2.6 0 0 2.6 784.22 360.99)">
<circle style="fill: rgb(236,86,159); fill-rule: nonzero; opacity: 1;" vector-effect="non-scaling-stroke"  cx="0" cy="0" r="35" />
</g>
<g transform="matrix(3.21 0 0 3.21 519.94 139.82)">
<circle style="fill: rgb(248,219,88); fill-rule: nonzero; opacity: 1;" vector-effect="non-scaling-stroke"  cx="0" cy="0" r="35" />
</g>
<g transform="matrix(1.55 0 0 1.55 271.36 237.23)">
<circle style="fill: rgb(0,0,0); fill-rule: nonzero; opacity: 1;" vector-effect="non-scaling-stroke"  cx="0" cy="0" r="35" />
</g>
</svg>
